PathFileType	4	(X/Y/Z)	/Users/itak/Documents/Research/Walk-IL/dataset/trc/00530_00183.trc
DataRate	CameraRate	NumFrames	NumMarkers	Units	OrigDataRate	OrigDataStartFrame	OrigNumFrames
100.000000	100.000000	4	53	mm	100.000000	0	457
Frame#	Time	RPSI			LPSI			L3			STRN			T10			C7			CLAV			RBAK			LBAK			LSHO			LUPA			LAEL			LAOL			LWTS			LFRA			LIFD			LHPS			LHTS			RSHO			RUPA			RAEL			RAOL			RWTS			RWPS			RFRA			RIFD			RHTS			RHPS			RBHD			LFHD			RFHD			LBHD			LHIP			RASI			LASI			LKNE			LTHI			LANK			LTIP			LTOE			LMT1			LMT5			LHEE			RKNE			RTHI			RANK			RTIP			RTOE			RMT1			RMT5			RHEE			LWPS			RHIP			
		X1	Y1	Z1	X2	Y2	Z2	X3	Y3	Z3	X4	Y4	Z4	X5	Y5	Z5	X6	Y6	Z6	X7	Y7	Z7	X8	Y8	Z8	X9	Y9	Z9	X10	Y10	Z10	X11	Y11	Z11	X12	Y12	Z12	X13	Y13	Z13	X14	Y14	Z14	X15	Y15	Z15	X16	Y16	Z16	X17	Y17	Z17	X18	Y18	Z18	X19	Y19	Z19	X20	Y20	Z20	X21	Y21	Z21	X22	Y22	Z22	X23	Y23	Z23	X24	Y24	Z24	X25	Y25	Z25	X26	Y26	Z26	X27	Y27	Z27	X28	Y28	Z28	X29	Y29	Z29	X30	Y30	Z30	X31	Y31	Z31	X32	Y32	Z32	X33	Y33	Z33	X34	Y34	Z34	X35	Y35	Z35	X36	Y36	Z36	X37	Y37	Z37	X38	Y38	Z38	X39	Y39	Z39	X40	Y40	Z40	X41	Y41	Z41	X42	Y42	Z42	X43	Y43	Z43	X44	Y44	Z44	X45	Y45	Z45	X46	Y46	Z46	X47	Y47	Z47	X48	Y48	Z48	X49	Y49	Z49	X50	Y50	Z50	X51	Y51	Z51	X52	Y52	Z52	X53	Y53	Z53	

1	0	-1219.276000976562	972.3348388671875	-399.7795715332031	-1160.58837890625	969.6278686523438	-509.0551147460938	-1201.759765625	1032.644409179688	-464.2342834472656	-1000.439392089844	1205.069580078125	-382.3438415527344	-1219.130249023438	1138.461303710938	-468.5861206054688	-1183.395263671875	1370.030395507812	-453.0270385742188	-1036.521362304688	1298.859741210938	-398.3016052246094	-1255.231201171875	1247.408569335938	-388.7561340332031	-1174.55615234375	1314.62060546875	-541.9666748046875	-1061.515747070312	1362.820434570312	-579.1278076171875	-1052.430786132812	1235.934326171875	-639.2014770507812	-1032.175048828125	1025.928466796875	-658.385009765625	-1123.625122070312	1016.968200683594	-617.683349609375	-953.4215087890625	845.6121215820312	-584.744873046875	-1012.742248535156	943.5374145507812	-651.0084838867188	-913.7626342773438	710.5377197265625	-580.2677612304688	-986.9566650390625	753.0156860351562	-632.8961181640625	-934.8233032226562	768.1917724609375	-598.0494384765625	-1185.646728515625	1367.78564453125	-295.8755798339844	-1221.659057617188	1300.381958007812	-247.8782958984375	-1221.4892578125	1031.826049804688	-202.3832550048828	-1256.264892578125	1013.963134765625	-256.2479553222656	-1107.2890625	837.095458984375	-190.3265838623047	-1193.422729492188	809.4586181640625	-178.8633575439453	-1216.7216796875	977.5536499023438	-193.6713562011719	-1095.571655273438	677.5396118164062	-184.1343383789062	-1098.110107421875	744.7378540039062	-159.8728485107422	-1167.89306640625	737.0443725585938	-168.4214782714844	-1186.1630859375	1524.997314453125	-372.583984375	-1014.873352050781	1598.057373046875	-447.6298217773438	-1072.377319335938	1593.225341796875	-333.7291259765625	-1127.424560546875	1525.035400390625	-519.960205078125	-1008.807006835938	894.9884643554688	-578.8160400390625	-1060.9228515625	915.8360595703125	-256.396728515625	-956.8303833007812	928.3795776367188	-475.3789978027344	-1025.997436523438	472.4580383300781	-535.3516845703125	-1000.316650390625	629.642822265625	-552.579833984375	-1129.281494140625	51.16314697265625	-562.88916015625	-1058.543823242188	322.58544921875	-550.2020874023438	-974.3093872070312	39.38808441162109	-426.9172668457031	-1058.89794921875	43.91252517700195	-428.4638061523438	-1025.668823242188	45.99861907958984	-524.875	-1198.257080078125	47.29267120361328	-526.4191284179688	-1162.78271484375	482.8396301269531	-274.0157470703125	-1161.0947265625	741.873291015625	-229.5186767578125	-1217.745727539062	50.82214736938477	-334.8457336425781	-1156.268920898438	337.8509216308594	-293.4215698242188	-1014.2568359375	43.03504180908203	-303.34423828125	-1064.016357421875	48.11358261108398	-361.8436889648438	-1117.170532226562	47.01639556884766	-280.5632934570312	-1248.773681640625	40.80058288574219	-398.0515747070312	nan	nan	nan	nan	nan	nan	
2	0.01	-1219.219848632812	972.3749389648438	-399.7912292480469	-1160.522583007812	969.6727294921875	-509.08056640625	-1201.724365234375	1032.655639648438	-464.2650451660156	-1000.444274902344	1205.069091796875	-382.3449401855469	-1219.133911132812	1138.467651367188	-468.607666015625	-1183.330444335938	1370.009521484375	-453.0774841308594	-1036.484375	1298.8642578125	-398.2913818359375	-1255.1787109375	1247.412231445312	-388.8158264160156	-1174.461059570312	1314.645629882812	-542.0245971679688	-1061.43505859375	1362.840698242188	-579.118896484375	-1052.299438476562	1235.950927734375	-639.1943969726562	-1031.932006835938	1025.975463867188	-658.3282470703125	-1123.517700195312	1016.986450195312	-617.7396850585938	-953.3070068359375	845.7080078125	-584.5711669921875	-1012.54833984375	943.5750122070312	-650.9298095703125	-913.7572021484375	710.4661865234375	-579.8843383789062	-986.7011108398438	753.0462036132812	-632.7437744140625	-934.6503295898438	768.2537841796875	-597.7393798828125	-1185.624633789062	1367.790161132812	-295.8979797363281	-1221.633666992188	1300.370727539062	-247.8978271484375	-1221.43701171875	1031.81640625	-202.4084777832031	-1256.204223632812	1013.950622558594	-256.2851867675781	-1107.268676757812	837.053955078125	-190.3833770751953	-1193.4453125	809.385009765625	-178.9534759521484	-1216.667358398438	977.5399780273438	-193.6985015869141	-1095.622680664062	677.4908447265625	-184.2274017333984	-1098.091918945312	744.6731567382812	-159.98876953125	-1167.938842773438	737.0157470703125	-168.4608917236328	-1186.164794921875	1525.01611328125	-372.6025695800781	-1014.826782226562	1598.077758789062	-447.8000183105469	-1072.293334960938	1593.29638671875	-333.800537109375	-1127.489135742188	1524.982788085938	-520.025634765625	-1008.770874023438	895.0057373046875	-578.7925415039062	-1060.935913085938	915.8173217773438	-256.3812561035156	-956.7755737304688	928.3668823242188	-475.3565979003906	-1026.003662109375	472.4479064941406	-535.3609619140625	-1000.309814453125	629.636962890625	-552.5752563476562	-1129.282104492188	51.15901184082031	-562.8875122070312	-1058.560424804688	322.5808715820312	-550.2196655273438	-974.3113403320312	39.37875366210938	-426.9140014648438	-1058.896728515625	43.91158676147461	-428.4650573730469	-1025.671997070312	46.0030632019043	-524.8694458007812	-1198.25146484375	47.29110336303711	-526.4174194335938	-1162.986694335938	482.8597717285156	-274.0098571777344	-1161.174926757812	741.87744140625	-229.5189666748047	-1217.7451171875	50.80337905883789	-334.8471984863281	-1156.426635742188	337.8753051757812	-293.4360046386719	-1014.2763671875	43.0307731628418	-303.3411254882812	-1064.029174804688	48.10843276977539	-361.8208312988281	-1117.182983398438	47.01759719848633	-280.5532836914062	-1248.781982421875	40.79414749145508	-398.0428466796875	-1000.359985351562	812.4944458007812	-649.9695434570312	nan	nan	nan	
3	0.02	-1219.154907226562	972.4221801757812	-399.8121643066406	-1160.449584960938	969.72314453125	-509.1141052246094	-1201.683227539062	1032.676147460938	-464.3049011230469	-1000.435607910156	1205.064575195312	-382.3433837890625	-1219.126831054688	1138.47705078125	-468.6412353515625	-1183.239379882812	1369.990478515625	-453.1401672363281	-1036.433959960938	1298.869262695312	-398.2815246582031	-1255.107055664062	1247.423583984375	-388.8910217285156	-1174.3427734375	1314.674194335938	-542.0924682617188	-1061.331420898438	1362.86181640625	-579.10400390625	-1052.133911132812	1235.9716796875	-639.1895141601562	-1031.648681640625	1026.02880859375	-658.2652587890625	-1123.359741210938	1016.997741699219	-617.80859375	-953.1614379882812	845.8143920898438	-584.3624267578125	-1012.290954589844	943.6246337890625	-650.8335571289062	-913.7760009765625	710.3745727539062	-579.4263305664062	-986.3634643554688	753.0835571289062	-632.5765991210938	-934.4387817382812	768.3290405273438	-597.3603515625	-1185.5869140625	1367.7998046875	-295.9271545410156	-1221.590454101562	1300.362915039062	-247.9270324707031	-1221.37158203125	1031.811157226562	-202.4405517578125	-1256.1337890625	1013.941711425781	-256.3266906738281	-1107.250122070312	837.00927734375	-190.4472045898438	-1193.471557617188	809.3094482421875	-179.0596771240234	-1216.60498046875	977.5299072265625	-193.731201171875	-1095.684326171875	677.4364013671875	-184.3405303955078	-1098.075073242188	744.5994873046875	-160.1279449462891	-1167.994506835938	736.9866943359375	-168.5096893310547	-1186.16162109375	1525.034301757812	-372.6255493164062	-1014.791625976562	1598.105102539062	-447.9955749511719	-1072.207641601562	1593.381591796875	-333.8960571289062	-1127.552490234375	1524.926513671875	-520.1016845703125	-1008.722106933594	895.0211181640625	-578.7645874023438	-1060.953002929688	915.7962036132812	-256.3660278320312	-956.6971435546875	928.354736328125	-475.3301696777344	-1026.007934570312	472.4363098144531	-535.3720092773438	-1000.292358398438	629.6293334960938	-552.566162109375	-1129.283447265625	51.15444946289062	-562.887451171875	-1058.572143554688	322.5740966796875	-550.2368774414062	-974.3131103515625	39.36859893798828	-426.9101257324219	-1058.896240234375	43.90988159179688	-428.4660339355469	-1025.675659179688	46.00844192504883	-524.8630981445312	-1198.247436523438	47.28973770141602	-526.4158325195312	-1163.23095703125	482.8826904296875	-274.0048828125	-1161.282470703125	741.879150390625	-229.5166168212891	-1217.748291015625	50.78347015380859	-334.8458862304688	-1156.618408203125	337.9041442871094	-293.4548950195312	-1014.295471191406	43.02892303466797	-303.3389892578125	-1064.042236328125	48.10588836669922	-361.8009948730469	-1117.195434570312	47.01702117919922	-280.5387878417969	-1248.7919921875	40.78703308105469	-398.0316772460938	-1000.693786621094	812.0999755859375	-649.7251586914062	-1179.951782226562	870.5917358398438	-243.4029846191406	
4	0.03	-1219.085205078125	972.4736328125	-399.845703125	-1160.3759765625	969.7745971679688	-509.1563110351562	-1201.640747070312	1032.706787109375	-464.3522338867188	-1000.408325195312	1205.054931640625	-382.3392639160156	-1219.102661132812	1138.48974609375	-468.688720703125	-1183.121459960938	1369.977416992188	-453.2119750976562	-1036.369750976562	1298.8740234375	-398.2740783691406	-1255.017700195312	1247.444458007812	-388.9774780273438	-1174.2060546875	1314.703735351562	-542.1654052734375	-1061.20654296875	1362.881225585938	-579.0829467773438	-1051.9404296875	1235.994995117188	-639.1881713867188	-1031.345947265625	1026.082153320312	-658.2027587890625	-1123.146850585938	1016.996826171875	-617.8851318359375	-952.9892578125	845.9204711914062	-584.134033203125	-1011.97705078125	943.6838989257812	-650.7257080078125	-913.8267822265625	710.2642211914062	-578.9296875	-985.9563598632812	753.1257934570312	-632.4111938476562	-934.1996459960938	768.4117431640625	-596.9425048828125	-1185.530883789062	1367.8154296875	-295.962158203125	-1221.52685546875	1300.361694335938	-247.9666595458984	-1221.296508789062	1031.8134765625	-202.4783020019531	-1256.059936523438	1013.940185546875	-256.3689880371094	-1107.237426757812	836.966552734375	-190.5122985839844	-1193.500122070312	809.2427368164062	-179.1738128662109	-1216.540649414062	977.5276489257812	-193.7675323486328	-1095.753784179688	677.3819580078125	-184.4659423828125	-1098.063842773438	744.5242919921875	-160.2797698974609	-1168.056030273438	736.9615478515625	-168.5665588378906	-1186.1513671875	1525.04833984375	-372.6517333984375	-1014.779663085938	1598.138916015625	-448.2002258300781	-1072.131958007812	1593.47607421875	-334.0137329101562	-1127.60400390625	1524.872924804688	-520.1834106445312	-1008.663269042969	895.0311279296875	-578.7351684570312	-1060.973999023438	915.774658203125	-256.353759765625	-956.5911865234375	928.345703125	-475.3017272949219	-1026.008056640625	472.4237976074219	-535.3831787109375	-1000.259765625	629.6199951171875	-552.5509643554688	-1129.285400390625	51.14939498901367	-562.8888549804688	-1058.575317382812	322.5650939941406	-550.2506103515625	-974.3145141601562	39.35779190063477	-426.906005859375	-1058.897094726562	43.9071159362793	-428.4664611816406	-1025.679321289062	46.01356506347656	-524.8573608398438	-1198.24560546875	47.28881072998047	-526.4147338867188	-1163.499389648438	482.906005859375	-274.00341796875	-1161.412841796875	741.8783569335938	-229.512451171875	-1217.755615234375	50.76406478881836	-334.8419494628906	-1156.832763671875	337.9355163574219	-293.4774475097656	-1014.311950683594	43.03012466430664	-303.3373718261719	-1064.053955078125	48.1060905456543	-361.7874755859375	-1117.20654296875	47.01424789428711	-280.520263671875	-1248.802368164062	40.77980422973633	-398.0192565917969	-1001.320068359375	811.4827880859375	-649.3880615234375	-1180.010620117188	870.6456909179688	-243.4631195068359	
